<svg id="visual" viewBox="0 0 900 600" width="900" height="600" xmlns="http://www.w3.org/2000/svg" xmlns:xlink="http://www.w3.org/1999/xlink" version="1.1"><g stroke-width="1" stroke-linejoin="bevel"><path d="M479 321L442 343L478 374Z" fill="#081838" stroke="#090979"></path><path d="M442 343L446 405L478 374Z" fill="#00d4ff" stroke="#090979"></path><path d="M446 405L507 415L478 374Z" fill="#0b8ec0" stroke="#090979"></path><path d="M478 374L558 368L479 321Z" fill="#154f7c" stroke="#090979"></path><path d="M442 343L394 386L446 405Z" fill="#00d4ff" stroke="#090979"></path><path d="M479 321L422 276L442 343Z" fill="#0b8ec0" stroke="#090979"></path><path d="M442 343L390 386L394 386Z" fill="#00d4ff" stroke="#090979"></path><path d="M335 343L390 386L442 343Z" fill="#0e294e" stroke="#090979"></path><path d="M395 451L447 453L446 405Z" fill="#133b65" stroke="#090979"></path><path d="M507 415L558 368L478 374Z" fill="#00bceb" stroke="#090979"></path><path d="M479 321L532 269L422 276Z" fill="#156393" stroke="#090979"></path><path d="M580 335L532 269L479 321Z" fill="#00bceb" stroke="#090979"></path><path d="M387 438L446 405L394 386Z" fill="#081838" stroke="#090979"></path><path d="M446 405L447 453L507 415Z" fill="#00bceb" stroke="#090979"></path><path d="M558 368L580 335L479 321Z" fill="#081838" stroke="#090979"></path><path d="M580 335L564 271L532 269Z" fill="#0e294e" stroke="#090979"></path><path d="M390 386L387 438L394 386Z" fill="#020024" stroke="#090979"></path><path d="M387 438L395 451L446 405Z" fill="#020024" stroke="#090979"></path><path d="M447 453L506 472L507 415Z" fill="#1278aa" stroke="#090979"></path><path d="M611 457L608 389L558 368Z" fill="#00bceb" stroke="#090979"></path><path d="M558 368L608 389L580 335Z" fill="#0b8ec0" stroke="#090979"></path><path d="M497 544L506 472L447 453Z" fill="#02a5d6" stroke="#090979"></path><path d="M467 207L426 223L422 276Z" fill="#0b8ec0" stroke="#090979"></path><path d="M334 311L335 343L442 343Z" fill="#081838" stroke="#090979"></path><path d="M467 207L422 276L532 269Z" fill="#00bceb" stroke="#090979"></path><path d="M395 451L403 464L447 453Z" fill="#156393" stroke="#090979"></path><path d="M334 311L442 343L422 276Z" fill="#020024" stroke="#090979"></path><path d="M390 386L311 388L387 438Z" fill="#081838" stroke="#090979"></path><path d="M468 189L467 207L533 188Z" fill="#154f7c" stroke="#090979"></path><path d="M344 264L334 311L422 276Z" fill="#1278aa" stroke="#090979"></path><path d="M611 457L558 368L507 415Z" fill="#081838" stroke="#090979"></path><path d="M580 335L610 273L564 271Z" fill="#02a5d6" stroke="#090979"></path><path d="M391 215L344 264L422 276Z" fill="#156393" stroke="#090979"></path><path d="M430 142L391 215L426 223Z" fill="#154f7c" stroke="#090979"></path><path d="M426 223L391 215L422 276Z" fill="#154f7c" stroke="#090979"></path><path d="M533 188L467 207L532 269Z" fill="#00bceb" stroke="#090979"></path><path d="M467 207L468 189L426 223Z" fill="#133b65" stroke="#090979"></path><path d="M649 315L610 273L580 335Z" fill="#00d4ff" stroke="#090979"></path><path d="M564 271L533 188L532 269Z" fill="#020024" stroke="#090979"></path><path d="M265 311L335 343L334 311Z" fill="#081838" stroke="#090979"></path><path d="M254 330L311 388L335 343Z" fill="#133b65" stroke="#090979"></path><path d="M335 343L311 388L390 386Z" fill="#156393" stroke="#090979"></path><path d="M327 484L403 464L395 451Z" fill="#02a5d6" stroke="#090979"></path><path d="M327 484L397 525L403 464Z" fill="#081838" stroke="#090979"></path><path d="M618 250L533 188L564 271Z" fill="#0b8ec0" stroke="#090979"></path><path d="M649 315L618 250L610 273Z" fill="#0e294e" stroke="#090979"></path><path d="M610 273L618 250L564 271Z" fill="#133b65" stroke="#090979"></path><path d="M506 472L611 457L507 415Z" fill="#02a5d6" stroke="#090979"></path><path d="M608 389L649 315L580 335Z" fill="#00d4ff" stroke="#090979"></path><path d="M611 457L627 433L608 389Z" fill="#020024" stroke="#090979"></path><path d="M692 357L649 315L608 389Z" fill="#020024" stroke="#090979"></path><path d="M327 484L395 451L387 438Z" fill="#154f7c" stroke="#090979"></path><path d="M403 464L397 525L447 453Z" fill="#1278aa" stroke="#090979"></path><path d="M506 472L551 526L611 457Z" fill="#00bceb" stroke="#090979"></path><path d="M497 544L551 526L506 472Z" fill="#0e294e" stroke="#090979"></path><path d="M311 388L327 484L387 438Z" fill="#1278aa" stroke="#090979"></path><path d="M397 525L497 544L447 453Z" fill="#081838" stroke="#090979"></path><path d="M266 244L265 311L344 264Z" fill="#1278aa" stroke="#090979"></path><path d="M344 264L265 311L334 311Z" fill="#0e294e" stroke="#090979"></path><path d="M311 388L235 461L327 484Z" fill="#00d4ff" stroke="#090979"></path><path d="M651 232L629 213L618 250Z" fill="#1278aa" stroke="#090979"></path><path d="M618 250L629 213L533 188Z" fill="#1278aa" stroke="#090979"></path><path d="M468 189L430 142L426 223Z" fill="#154f7c" stroke="#090979"></path><path d="M391 215L328 183L344 264Z" fill="#00bceb" stroke="#090979"></path><path d="M506 108L430 142L468 189Z" fill="#020024" stroke="#090979"></path><path d="M506 108L468 189L533 188Z" fill="#0b8ec0" stroke="#090979"></path><path d="M649 315L651 232L618 250Z" fill="#020024" stroke="#090979"></path><path d="M265 311L254 330L335 343Z" fill="#1278aa" stroke="#090979"></path><path d="M430 142L328 183L391 215Z" fill="#081838" stroke="#090979"></path><path d="M169 298L214 358L254 330Z" fill="#1278aa" stroke="#090979"></path><path d="M717 392L692 357L627 433Z" fill="#0e294e" stroke="#090979"></path><path d="M627 433L692 357L608 389Z" fill="#133b65" stroke="#090979"></path><path d="M649 315L729 254L651 232Z" fill="#133b65" stroke="#090979"></path><path d="M328 183L281 225L344 264Z" fill="#1278aa" stroke="#090979"></path><path d="M281 225L266 244L344 264Z" fill="#0e294e" stroke="#090979"></path><path d="M327 484L358 548L397 525Z" fill="#0e294e" stroke="#090979"></path><path d="M397 525L455 600L497 544Z" fill="#00d4ff" stroke="#090979"></path><path d="M644 156L574 131L629 213Z" fill="#1278aa" stroke="#090979"></path><path d="M629 213L574 131L533 188Z" fill="#00bceb" stroke="#090979"></path><path d="M327 484L325 541L358 548Z" fill="#00bceb" stroke="#090979"></path><path d="M235 461L325 541L327 484Z" fill="#0e294e" stroke="#090979"></path><path d="M574 131L506 108L533 188Z" fill="#0b8ec0" stroke="#090979"></path><path d="M267 155L263 189L328 183Z" fill="#020024" stroke="#090979"></path><path d="M574 131L505 101L506 108Z" fill="#020024" stroke="#090979"></path><path d="M506 108L505 101L430 142Z" fill="#0e294e" stroke="#090979"></path><path d="M713 484L717 392L627 433Z" fill="#0b8ec0" stroke="#090979"></path><path d="M692 357L734 271L649 315Z" fill="#00bceb" stroke="#090979"></path><path d="M692 506L627 433L611 457Z" fill="#0e294e" stroke="#090979"></path><path d="M358 548L455 600L397 525Z" fill="#0b8ec0" stroke="#090979"></path><path d="M497 544L530 600L551 526Z" fill="#02a5d6" stroke="#090979"></path><path d="M340 600L455 600L358 548Z" fill="#154f7c" stroke="#090979"></path><path d="M455 600L499 600L497 544Z" fill="#154f7c" stroke="#090979"></path><path d="M551 526L630 550L611 457Z" fill="#0b8ec0" stroke="#090979"></path><path d="M169 298L254 330L265 311Z" fill="#00bceb" stroke="#090979"></path><path d="M254 330L214 358L311 388Z" fill="#1278aa" stroke="#090979"></path><path d="M717 392L725 377L692 357Z" fill="#00d4ff" stroke="#090979"></path><path d="M621 600L630 550L551 526Z" fill="#081838" stroke="#090979"></path><path d="M688 168L629 213L651 232Z" fill="#0e294e" stroke="#090979"></path><path d="M688 168L644 156L629 213Z" fill="#133b65" stroke="#090979"></path><path d="M547 44L498 75L505 101Z" fill="#133b65" stroke="#090979"></path><path d="M499 600L530 600L497 544Z" fill="#081838" stroke="#090979"></path><path d="M281 225L263 189L266 244Z" fill="#0e294e" stroke="#090979"></path><path d="M160 339L172 387L214 358Z" fill="#156393" stroke="#090979"></path><path d="M328 183L263 189L281 225Z" fill="#156393" stroke="#090979"></path><path d="M330 117L328 183L430 142Z" fill="#020024" stroke="#090979"></path><path d="M205 434L235 461L311 388Z" fill="#1278aa" stroke="#090979"></path><path d="M371 92L330 117L430 142Z" fill="#133b65" stroke="#090979"></path><path d="M630 550L692 506L611 457Z" fill="#0b8ec0" stroke="#090979"></path><path d="M788 427L796 341L725 377Z" fill="#00d4ff" stroke="#090979"></path><path d="M443 34L371 92L430 142Z" fill="#00d4ff" stroke="#090979"></path><path d="M547 44L505 101L574 131Z" fill="#133b65" stroke="#090979"></path><path d="M505 101L498 75L430 142Z" fill="#081838" stroke="#090979"></path><path d="M725 377L734 271L692 357Z" fill="#154f7c" stroke="#090979"></path><path d="M734 271L729 254L649 315Z" fill="#0b8ec0" stroke="#090979"></path><path d="M214 358L205 434L311 388Z" fill="#00d4ff" stroke="#090979"></path><path d="M692 506L713 484L627 433Z" fill="#0b8ec0" stroke="#090979"></path><path d="M315 114L267 155L328 183Z" fill="#133b65" stroke="#090979"></path><path d="M179 259L265 311L266 244Z" fill="#1278aa" stroke="#090979"></path><path d="M315 114L328 183L330 117Z" fill="#081838" stroke="#090979"></path><path d="M371 92L315 114L330 117Z" fill="#133b65" stroke="#090979"></path><path d="M729 254L688 168L651 232Z" fill="#156393" stroke="#090979"></path><path d="M625 42L547 44L574 131Z" fill="#081838" stroke="#090979"></path><path d="M272 600L340 600L325 541Z" fill="#081838" stroke="#090979"></path><path d="M325 541L340 600L358 548Z" fill="#0b8ec0" stroke="#090979"></path><path d="M272 600L210 564L249 600Z" fill="#02a5d6" stroke="#090979"></path><path d="M530 600L621 600L551 526Z" fill="#0b8ec0" stroke="#090979"></path><path d="M630 550L669 570L692 506Z" fill="#0e294e" stroke="#090979"></path><path d="M692 506L744 507L713 484Z" fill="#00d4ff" stroke="#090979"></path><path d="M630 600L669 570L630 550Z" fill="#0b8ec0" stroke="#090979"></path><path d="M621 600L630 600L630 550Z" fill="#0e294e" stroke="#090979"></path><path d="M214 358L172 387L205 434Z" fill="#02a5d6" stroke="#090979"></path><path d="M179 259L266 244L263 189Z" fill="#133b65" stroke="#090979"></path><path d="M189 160L179 259L263 189Z" fill="#00d4ff" stroke="#090979"></path><path d="M179 259L169 298L265 311Z" fill="#00d4ff" stroke="#090979"></path><path d="M720 600L686 567L669 570Z" fill="#156393" stroke="#090979"></path><path d="M669 570L686 567L692 506Z" fill="#00d4ff" stroke="#090979"></path><path d="M169 298L160 339L214 358Z" fill="#154f7c" stroke="#090979"></path><path d="M666 92L574 131L644 156Z" fill="#02a5d6" stroke="#090979"></path><path d="M498 75L443 34L430 142Z" fill="#00d4ff" stroke="#090979"></path><path d="M478 0L443 34L498 75Z" fill="#156393" stroke="#090979"></path><path d="M303 29L238 82L315 114Z" fill="#00d4ff" stroke="#090979"></path><path d="M729 254L718 152L688 168Z" fill="#02a5d6" stroke="#090979"></path><path d="M688 168L690 117L644 156Z" fill="#1278aa" stroke="#090979"></path><path d="M787 155L718 152L729 254Z" fill="#1278aa" stroke="#090979"></path><path d="M160 339L154 367L172 387Z" fill="#0b8ec0" stroke="#090979"></path><path d="M172 387L172 458L205 434Z" fill="#0b8ec0" stroke="#090979"></path><path d="M315 114L237 132L267 155Z" fill="#154f7c" stroke="#090979"></path><path d="M267 155L237 132L263 189Z" fill="#154f7c" stroke="#090979"></path><path d="M211 114L237 132L238 82Z" fill="#081838" stroke="#090979"></path><path d="M686 567L744 507L692 506Z" fill="#0e294e" stroke="#090979"></path><path d="M713 484L788 427L717 392Z" fill="#133b65" stroke="#090979"></path><path d="M725 377L796 341L734 271Z" fill="#133b65" stroke="#090979"></path><path d="M143 387L172 458L172 387Z" fill="#154f7c" stroke="#090979"></path><path d="M205 434L172 458L235 461Z" fill="#0e294e" stroke="#090979"></path><path d="M718 152L690 117L688 168Z" fill="#156393" stroke="#090979"></path><path d="M272 600L325 541L210 564Z" fill="#00d4ff" stroke="#090979"></path><path d="M690 117L666 92L644 156Z" fill="#020024" stroke="#090979"></path><path d="M172 458L185 506L235 461Z" fill="#0e294e" stroke="#090979"></path><path d="M788 427L725 377L717 392Z" fill="#154f7c" stroke="#090979"></path><path d="M734 271L788 269L729 254Z" fill="#00d4ff" stroke="#090979"></path><path d="M796 341L788 269L734 271Z" fill="#133b65" stroke="#090979"></path><path d="M744 507L788 427L713 484Z" fill="#00bceb" stroke="#090979"></path><path d="M154 367L143 387L172 387Z" fill="#02a5d6" stroke="#090979"></path><path d="M172 458L124 461L185 506Z" fill="#00bceb" stroke="#090979"></path><path d="M72 323L143 387L154 367Z" fill="#1278aa" stroke="#090979"></path><path d="M72 323L154 367L160 339Z" fill="#081838" stroke="#090979"></path><path d="M84 297L160 339L169 298Z" fill="#081838" stroke="#090979"></path><path d="M210 564L325 541L235 461Z" fill="#0b8ec0" stroke="#090979"></path><path d="M237 132L189 160L263 189Z" fill="#0b8ec0" stroke="#090979"></path><path d="M179 259L84 297L169 298Z" fill="#1278aa" stroke="#090979"></path><path d="M185 506L210 564L235 461Z" fill="#0b8ec0" stroke="#090979"></path><path d="M666 92L625 42L574 131Z" fill="#00bceb" stroke="#090979"></path><path d="M547 44L478 0L498 75Z" fill="#154f7c" stroke="#090979"></path><path d="M707 57L625 42L666 92Z" fill="#020024" stroke="#090979"></path><path d="M538 0L478 0L547 44Z" fill="#020024" stroke="#090979"></path><path d="M327 0L303 29L371 92Z" fill="#154f7c" stroke="#090979"></path><path d="M478 0L446 0L443 34Z" fill="#020024" stroke="#090979"></path><path d="M237 132L211 114L189 160Z" fill="#02a5d6" stroke="#090979"></path><path d="M238 82L237 132L315 114Z" fill="#133b65" stroke="#090979"></path><path d="M686 567L760 541L744 507Z" fill="#156393" stroke="#090979"></path><path d="M744 507L846 509L788 427Z" fill="#0b8ec0" stroke="#090979"></path><path d="M720 600L760 541L686 567Z" fill="#1278aa" stroke="#090979"></path><path d="M303 29L315 114L371 92Z" fill="#156393" stroke="#090979"></path><path d="M836 297L814 272L796 341Z" fill="#0b8ec0" stroke="#090979"></path><path d="M796 341L814 272L788 269Z" fill="#02a5d6" stroke="#090979"></path><path d="M820 184L787 155L729 254Z" fill="#081838" stroke="#090979"></path><path d="M587 0L538 0L547 44Z" fill="#1278aa" stroke="#090979"></path><path d="M630 600L720 600L669 570Z" fill="#154f7c" stroke="#090979"></path><path d="M327 0L371 92L443 34Z" fill="#081838" stroke="#090979"></path><path d="M41 400L124 461L143 387Z" fill="#154f7c" stroke="#090979"></path><path d="M143 387L124 461L172 458Z" fill="#00d4ff" stroke="#090979"></path><path d="M185 506L165 600L210 564Z" fill="#154f7c" stroke="#090979"></path><path d="M625 42L587 0L547 44Z" fill="#0e294e" stroke="#090979"></path><path d="M842 401L796 341L788 427Z" fill="#020024" stroke="#090979"></path><path d="M842 401L839 361L796 341Z" fill="#081838" stroke="#090979"></path><path d="M839 361L836 297L796 341Z" fill="#020024" stroke="#090979"></path><path d="M820 184L729 254L788 269Z" fill="#0e294e" stroke="#090979"></path><path d="M749 81L707 57L690 117Z" fill="#156393" stroke="#090979"></path><path d="M820 184L788 269L814 272Z" fill="#0e294e" stroke="#090979"></path><path d="M690 117L707 57L666 92Z" fill="#020024" stroke="#090979"></path><path d="M625 42L649 0L587 0Z" fill="#02a5d6" stroke="#090979"></path><path d="M211 114L150 157L189 160Z" fill="#0b8ec0" stroke="#090979"></path><path d="M189 160L150 157L179 259Z" fill="#0e294e" stroke="#090979"></path><path d="M98 88L150 157L211 114Z" fill="#00bceb" stroke="#090979"></path><path d="M749 81L690 117L760 93Z" fill="#133b65" stroke="#090979"></path><path d="M446 0L327 0L443 34Z" fill="#1278aa" stroke="#090979"></path><path d="M227 0L198 54L238 82Z" fill="#00d4ff" stroke="#090979"></path><path d="M238 82L198 54L211 114Z" fill="#0b8ec0" stroke="#090979"></path><path d="M846 509L842 401L788 427Z" fill="#00bceb" stroke="#090979"></path><path d="M900 303L865 255L836 297Z" fill="#081838" stroke="#090979"></path><path d="M327 0L309 0L303 29Z" fill="#1278aa" stroke="#090979"></path><path d="M760 93L690 117L718 152Z" fill="#0e294e" stroke="#090979"></path><path d="M787 155L760 93L718 152Z" fill="#00d4ff" stroke="#090979"></path><path d="M865 255L820 184L814 272Z" fill="#1278aa" stroke="#090979"></path><path d="M787 155L847 129L760 93Z" fill="#020024" stroke="#090979"></path><path d="M85 214L84 297L179 259Z" fill="#081838" stroke="#090979"></path><path d="M688 0L649 0L707 57Z" fill="#1278aa" stroke="#090979"></path><path d="M707 57L649 0L625 42Z" fill="#02a5d6" stroke="#090979"></path><path d="M75 504L113 512L124 461Z" fill="#02a5d6" stroke="#090979"></path><path d="M124 461L113 512L185 506Z" fill="#02a5d6" stroke="#090979"></path><path d="M210 564L165 600L249 600Z" fill="#133b65" stroke="#090979"></path><path d="M150 600L165 600L185 506Z" fill="#0b8ec0" stroke="#090979"></path><path d="M84 297L72 323L160 339Z" fill="#1278aa" stroke="#090979"></path><path d="M227 0L238 82L303 29Z" fill="#133b65" stroke="#090979"></path><path d="M150 157L85 214L179 259Z" fill="#02a5d6" stroke="#090979"></path><path d="M900 303L836 297L839 361Z" fill="#081838" stroke="#090979"></path><path d="M836 297L865 255L814 272Z" fill="#02a5d6" stroke="#090979"></path><path d="M72 215L85 214L59 152Z" fill="#0e294e" stroke="#090979"></path><path d="M0 324L30 348L72 323Z" fill="#02a5d6" stroke="#090979"></path><path d="M113 512L150 600L185 506Z" fill="#00d4ff" stroke="#090979"></path><path d="M819 600L846 509L760 541Z" fill="#00bceb" stroke="#090979"></path><path d="M760 541L846 509L744 507Z" fill="#020024" stroke="#090979"></path><path d="M842 401L900 357L839 361Z" fill="#1278aa" stroke="#090979"></path><path d="M805 0L688 0L707 57Z" fill="#156393" stroke="#090979"></path><path d="M805 0L707 57L749 81Z" fill="#0b8ec0" stroke="#090979"></path><path d="M94 134L85 214L150 157Z" fill="#0b8ec0" stroke="#090979"></path><path d="M85 214L72 215L84 297Z" fill="#081838" stroke="#090979"></path><path d="M720 600L804 600L760 541Z" fill="#133b65" stroke="#090979"></path><path d="M309 0L227 0L303 29Z" fill="#0b8ec0" stroke="#090979"></path><path d="M98 88L94 134L150 157Z" fill="#154f7c" stroke="#090979"></path><path d="M41 400L75 504L124 461Z" fill="#00d4ff" stroke="#090979"></path><path d="M113 512L68 600L150 600Z" fill="#156393" stroke="#090979"></path><path d="M900 407L900 357L842 401Z" fill="#1278aa" stroke="#090979"></path><path d="M804 600L819 600L760 541Z" fill="#020024" stroke="#090979"></path><path d="M900 457L900 407L842 401Z" fill="#00d4ff" stroke="#090979"></path><path d="M72 323L41 400L143 387Z" fill="#081838" stroke="#090979"></path><path d="M30 348L41 400L72 323Z" fill="#020024" stroke="#090979"></path><path d="M98 88L211 114L198 54Z" fill="#02a5d6" stroke="#090979"></path><path d="M900 357L900 303L839 361Z" fill="#156393" stroke="#090979"></path><path d="M900 181L847 129L820 184Z" fill="#00d4ff" stroke="#090979"></path><path d="M820 184L847 129L787 155Z" fill="#00bceb" stroke="#090979"></path><path d="M900 457L842 401L846 509Z" fill="#02a5d6" stroke="#090979"></path><path d="M900 231L820 184L865 255Z" fill="#133b65" stroke="#090979"></path><path d="M760 93L832 59L749 81Z" fill="#00d4ff" stroke="#090979"></path><path d="M0 324L72 323L0 281Z" fill="#020024" stroke="#090979"></path><path d="M72 323L84 297L0 281Z" fill="#00bceb" stroke="#090979"></path><path d="M900 551L900 457L846 509Z" fill="#020024" stroke="#090979"></path><path d="M900 303L900 231L865 255Z" fill="#02a5d6" stroke="#090979"></path><path d="M129 0L98 88L198 54Z" fill="#0b8ec0" stroke="#090979"></path><path d="M94 134L59 152L85 214Z" fill="#02a5d6" stroke="#090979"></path><path d="M89 93L59 152L94 134Z" fill="#00d4ff" stroke="#090979"></path><path d="M819 600L864 574L846 509Z" fill="#02a5d6" stroke="#090979"></path><path d="M63 36L89 93L98 88Z" fill="#0b8ec0" stroke="#090979"></path><path d="M98 88L89 93L94 134Z" fill="#0b8ec0" stroke="#090979"></path><path d="M900 231L900 181L820 184Z" fill="#1278aa" stroke="#090979"></path><path d="M227 0L164 0L198 54Z" fill="#081838" stroke="#090979"></path><path d="M900 85L832 59L847 129Z" fill="#00bceb" stroke="#090979"></path><path d="M847 129L832 59L760 93Z" fill="#00d4ff" stroke="#090979"></path><path d="M0 281L84 297L0 242Z" fill="#02a5d6" stroke="#090979"></path><path d="M30 348L0 400L41 400Z" fill="#154f7c" stroke="#090979"></path><path d="M41 400L0 511L75 504Z" fill="#02a5d6" stroke="#090979"></path><path d="M0 324L0 400L30 348Z" fill="#154f7c" stroke="#090979"></path><path d="M0 242L84 297L72 215Z" fill="#0b8ec0" stroke="#090979"></path><path d="M33 559L68 600L75 504Z" fill="#154f7c" stroke="#090979"></path><path d="M75 504L68 600L113 512Z" fill="#00d4ff" stroke="#090979"></path><path d="M900 181L900 145L847 129Z" fill="#081838" stroke="#090979"></path><path d="M864 574L900 551L846 509Z" fill="#02a5d6" stroke="#090979"></path><path d="M0 161L0 242L72 215Z" fill="#0e294e" stroke="#090979"></path><path d="M0 161L72 215L59 152Z" fill="#0e294e" stroke="#090979"></path><path d="M807 0L805 0L832 59Z" fill="#02a5d6" stroke="#090979"></path><path d="M832 59L805 0L749 81Z" fill="#00d4ff" stroke="#090979"></path><path d="M900 0L807 0L832 59Z" fill="#020024" stroke="#090979"></path><path d="M0 511L33 559L75 504Z" fill="#1278aa" stroke="#090979"></path><path d="M164 0L129 0L198 54Z" fill="#00d4ff" stroke="#090979"></path><path d="M0 123L0 161L59 152Z" fill="#1278aa" stroke="#090979"></path><path d="M0 400L0 511L41 400Z" fill="#081838" stroke="#090979"></path><path d="M819 600L900 600L864 574Z" fill="#0e294e" stroke="#090979"></path><path d="M864 574L900 600L900 551Z" fill="#00bceb" stroke="#090979"></path><path d="M900 145L900 85L847 129Z" fill="#0b8ec0" stroke="#090979"></path><path d="M0 123L59 152L89 93Z" fill="#0e294e" stroke="#090979"></path><path d="M129 0L63 36L98 88Z" fill="#020024" stroke="#090979"></path><path d="M0 83L0 123L89 93Z" fill="#154f7c" stroke="#090979"></path><path d="M0 511L0 600L33 559Z" fill="#1278aa" stroke="#090979"></path><path d="M33 559L0 600L68 600Z" fill="#020024" stroke="#090979"></path><path d="M63 36L0 83L89 93Z" fill="#020024" stroke="#090979"></path><path d="M129 0L53 0L63 36Z" fill="#00bceb" stroke="#090979"></path><path d="M63 36L0 0L0 83Z" fill="#00bceb" stroke="#090979"></path><path d="M900 85L900 0L832 59Z" fill="#020024" stroke="#090979"></path><path d="M53 0L0 0L63 36Z" fill="#00d4ff" stroke="#090979"></path></g></svg>