<svg id="visual" viewBox="0 0 900 600" width="900" height="600" xmlns="http://www.w3.org/2000/svg" xmlns:xlink="http://www.w3.org/1999/xlink" version="1.1"><rect x="0" y="0" width="900" height="600" fill="#090979"></rect><defs><linearGradient id="grad1_0" x1="33.3%" y1="0%" x2="100%" y2="100%"><stop offset="20%" stop-color="#00d4ff" stop-opacity="1"></stop><stop offset="80%" stop-color="#00d4ff" stop-opacity="1"></stop></linearGradient></defs><defs><linearGradient id="grad1_1" x1="33.3%" y1="0%" x2="100%" y2="100%"><stop offset="20%" stop-color="#00d4ff" stop-opacity="1"></stop><stop offset="80%" stop-color="#00a4ea" stop-opacity="1"></stop></linearGradient></defs><defs><linearGradient id="grad1_2" x1="33.3%" y1="0%" x2="100%" y2="100%"><stop offset="20%" stop-color="#0074cf" stop-opacity="1"></stop><stop offset="80%" stop-color="#00a4ea" stop-opacity="1"></stop></linearGradient></defs><defs><linearGradient id="grad1_3" x1="33.3%" y1="0%" x2="100%" y2="100%"><stop offset="20%" stop-color="#0074cf" stop-opacity="1"></stop><stop offset="80%" stop-color="#0044aa" stop-opacity="1"></stop></linearGradient></defs><defs><linearGradient id="grad1_4" x1="33.3%" y1="0%" x2="100%" y2="100%"><stop offset="20%" stop-color="#090979" stop-opacity="1"></stop><stop offset="80%" stop-color="#0044aa" stop-opacity="1"></stop></linearGradient></defs><defs><linearGradient id="grad2_0" x1="0%" y1="0%" x2="66.7%" y2="100%"><stop offset="20%" stop-color="#00d4ff" stop-opacity="1"></stop><stop offset="80%" stop-color="#00d4ff" stop-opacity="1"></stop></linearGradient></defs><defs><linearGradient id="grad2_1" x1="0%" y1="0%" x2="66.7%" y2="100%"><stop offset="20%" stop-color="#00a4ea" stop-opacity="1"></stop><stop offset="80%" stop-color="#00d4ff" stop-opacity="1"></stop></linearGradient></defs><defs><linearGradient id="grad2_2" x1="0%" y1="0%" x2="66.7%" y2="100%"><stop offset="20%" stop-color="#00a4ea" stop-opacity="1"></stop><stop offset="80%" stop-color="#0074cf" stop-opacity="1"></stop></linearGradient></defs><defs><linearGradient id="grad2_3" x1="0%" y1="0%" x2="66.7%" y2="100%"><stop offset="20%" stop-color="#0044aa" stop-opacity="1"></stop><stop offset="80%" stop-color="#0074cf" stop-opacity="1"></stop></linearGradient></defs><defs><linearGradient id="grad2_4" x1="0%" y1="0%" x2="66.7%" y2="100%"><stop offset="20%" stop-color="#0044aa" stop-opacity="1"></stop><stop offset="80%" stop-color="#090979" stop-opacity="1"></stop></linearGradient></defs><g transform="translate(900, 0)"><path d="M0 513.8C-17.5 457.6 -35 401.5 -55.9 389C-76.9 376.5 -101.2 407.6 -121.4 413.5C-141.6 419.4 -157.7 400.1 -180.7 395.7C-203.7 391.2 -233.8 401.7 -252.5 392.9C-271.2 384 -278.5 356 -292.1 337.1C-305.6 318.2 -325.3 308.5 -333.3 288.8C-341.2 269.1 -337.5 239.5 -334.8 215.2C-332.2 190.9 -330.7 171.9 -350.2 159.9C-369.7 147.9 -410.2 142.8 -442.3 129.9C-474.4 116.9 -498.1 96.1 -508.6 73.1C-519.1 50.2 -516.4 25.1 -513.8 0L0 0Z" fill="#002a93"></path><path d="M0 411C-14 366.1 -28 321.2 -44.7 311.2C-61.5 301.2 -81 326.1 -97.1 330.8C-113.3 335.6 -126.1 320.1 -144.6 316.6C-163 313 -187 321.4 -202 314.3C-216.9 307.2 -222.8 284.8 -233.7 269.7C-244.5 254.5 -260.3 246.8 -266.6 231C-273 215.3 -270 191.6 -267.9 172.1C-265.7 152.7 -264.6 137.6 -280.2 127.9C-295.8 118.3 -328.2 114.3 -353.9 103.9C-379.5 93.5 -398.4 76.9 -406.8 58.5C-415.3 40.1 -413.1 20.1 -411 0L0 0Z" fill="#005cbe"></path><path d="M0 308.3C-10.5 274.6 -21 240.9 -33.6 233.4C-46.1 225.9 -60.7 244.6 -72.9 248.1C-85 251.7 -94.6 240.1 -108.4 237.4C-122.2 234.7 -140.3 241 -151.5 235.7C-162.7 230.4 -167.1 213.6 -175.2 202.2C-183.4 190.9 -195.2 185.1 -200 173.3C-204.7 161.5 -202.5 143.7 -200.9 129.1C-199.3 114.5 -198.4 103.2 -210.1 96C-221.8 88.8 -246.1 85.7 -265.4 77.9C-284.6 70.2 -298.8 57.6 -305.1 43.9C-311.4 30.1 -309.9 15 -308.3 0L0 0Z" fill="#008cde"></path><path d="M0 205.5C-7 183.1 -14 160.6 -22.4 155.6C-30.7 150.6 -40.5 163.1 -48.6 165.4C-56.7 167.8 -63.1 160.1 -72.3 158.3C-81.5 156.5 -93.5 160.7 -101 157.1C-108.5 153.6 -111.4 142.4 -116.8 134.8C-122.2 127.3 -130.1 123.4 -133.3 115.5C-136.5 107.6 -135 95.8 -133.9 86.1C-132.9 76.4 -132.3 68.8 -140.1 64C-147.9 59.2 -164.1 57.1 -176.9 52C-189.8 46.8 -199.2 38.4 -203.4 29.2C-207.6 20.1 -206.6 10 -205.5 0L0 0Z" fill="#00bcf5"></path><path d="M0 102.8C-3.5 91.5 -7 80.3 -11.2 77.8C-15.4 75.3 -20.2 81.5 -24.3 82.7C-28.3 83.9 -31.5 80 -36.1 79.1C-40.7 78.2 -46.8 80.3 -50.5 78.6C-54.2 76.8 -55.7 71.2 -58.4 67.4C-61.1 63.6 -65.1 61.7 -66.7 57.8C-68.2 53.8 -67.5 47.9 -67 43C-66.4 38.2 -66.1 34.4 -70 32C-73.9 29.6 -82 28.6 -88.5 26C-94.9 23.4 -99.6 19.2 -101.7 14.6C-103.8 10 -103.3 5 -102.8 0L0 0Z" fill="#00d4ff"></path></g><g transform="translate(0, 600)"><path d="M0 -513.8C26 -520.1 52 -526.4 73.1 -508.6C94.3 -490.8 110.6 -448.9 121.7 -414.5C132.8 -380.1 138.7 -353.2 162.4 -355.7C186.1 -358.1 227.6 -389.9 247.6 -385.3C267.6 -380.6 266.1 -339.5 271.1 -312.9C276.1 -286.2 287.5 -274.1 305.3 -264.6C323.2 -255.1 347.4 -248.2 366.8 -235.7C386.2 -223.2 400.7 -205 400.2 -182.8C399.8 -160.6 384.4 -134.3 391.5 -114.9C398.6 -95.6 428.2 -83.1 452.3 -65C476.5 -47 495.1 -23.5 513.8 0L0 0Z" fill="#002a93"></path><path d="M0 -411C20.8 -416.1 41.6 -421.1 58.5 -406.8C75.4 -392.6 88.5 -359.1 97.4 -331.6C106.3 -304.1 111 -282.6 129.9 -284.5C148.9 -286.5 182.1 -312 198.1 -308.2C214.1 -304.5 212.9 -271.6 216.9 -250.3C220.9 -229 230 -219.3 244.3 -211.7C258.5 -204.1 277.9 -198.6 293.4 -188.6C308.9 -178.6 320.6 -164 320.2 -146.2C319.8 -128.5 307.5 -107.5 313.2 -92C318.9 -76.5 342.6 -66.4 361.9 -52C381.2 -37.6 396.1 -18.8 411 0L0 0Z" fill="#005cbe"></path><path d="M0 -308.3C15.6 -312 31.2 -315.8 43.9 -305.1C56.6 -294.5 66.4 -269.3 73 -248.7C79.7 -228.1 83.2 -211.9 97.5 -213.4C111.7 -214.9 136.6 -234 148.6 -231.2C160.6 -228.4 159.7 -203.7 162.7 -187.7C165.6 -171.7 172.5 -164.4 183.2 -158.7C193.9 -153 208.4 -148.9 220.1 -141.4C231.7 -133.9 240.4 -123 240.1 -109.7C239.9 -96.3 230.6 -80.6 234.9 -69C239.1 -57.3 256.9 -49.8 271.4 -39C285.9 -28.2 297.1 -14.1 308.3 0L0 0Z" fill="#008cde"></path><path d="M0 -205.5C10.4 -208 20.8 -210.5 29.2 -203.4C37.7 -196.3 44.2 -179.6 48.7 -165.8C53.1 -152 55.5 -141.3 65 -142.3C74.4 -143.2 91 -156 99 -154.1C107 -152.3 106.5 -135.8 108.4 -125.2C110.4 -114.5 115 -109.6 122.1 -105.8C129.3 -102 139 -99.3 146.7 -94.3C154.5 -89.3 160.3 -82 160.1 -73.1C159.9 -64.2 153.7 -53.7 156.6 -46C159.4 -38.2 171.3 -33.2 180.9 -26C190.6 -18.8 198.1 -9.4 205.5 0L0 0Z" fill="#00bcf5"></path><path d="M0 -102.8C5.2 -104 10.4 -105.3 14.6 -101.7C18.9 -98.2 22.1 -89.8 24.3 -82.9C26.6 -76 27.7 -70.6 32.5 -71.1C37.2 -71.6 45.5 -78 49.5 -77.1C53.5 -76.1 53.2 -67.9 54.2 -62.6C55.2 -57.2 57.5 -54.8 61.1 -52.9C64.6 -51 69.5 -49.6 73.4 -47.1C77.2 -44.6 80.1 -41 80 -36.6C80 -32.1 76.9 -26.9 78.3 -23C79.7 -19.1 85.6 -16.6 90.5 -13C95.3 -9.4 99 -4.7 102.8 0L0 0Z" fill="#00d4ff"></path></g></svg>